<svg width="21" height="20" viewBox="0 0 21 20" fill="none" xmlns="http://www.w3.org/2000/svg">
<path d="M4.93215 8.0678C6.94355 4.50869 7.94925 2.72913 9.32928 2.27104C10.0885 2.01903 10.9063 2.01903 11.6655 2.27104C13.0455 2.72913 14.0512 4.50869 16.0626 8.0678C18.074 11.6269 19.0797 13.4065 18.778 14.8565C18.6121 15.6542 18.2032 16.3777 17.6099 16.9234C16.5316 17.9154 14.5202 17.9154 10.4974 17.9154C6.4746 17.9154 4.4632 17.9154 3.38487 16.9234C2.79163 16.3777 2.38272 15.6542 2.21675 14.8565C1.91506 13.4065 2.92076 11.6269 4.93215 8.0678Z" stroke="#FA4F4F" stroke-width="1.5"/>
<path d="M10.7005 14.1667V10.8333C10.7005 10.4405 10.7005 10.2441 10.5785 10.122C10.4564 10 10.26 10 9.86719 10" stroke="#FA4F4F" stroke-width="1.5" stroke-linecap="round" stroke-linejoin="round"/>
<path d="M10.492 7.5H10.4995" stroke="#FA4F4F" stroke-width="2" stroke-linecap="round" stroke-linejoin="round"/>
</svg>
