<svg width="153" height="124" viewBox="0 0 153 124" fill="none" xmlns="http://www.w3.org/2000/svg">
<path d="M149.559 45.9346V71.4761C149.572 73.4319 148.383 75.0938 146.018 76.4616L120.157 91.38C118.943 92.0831 117.498 92.441 115.849 92.441C114.187 92.4282 112.743 92.0831 111.516 91.3672L110.135 90.5746V80.7441C110.122 79.6192 109.905 78.5453 109.496 77.5227C108.499 74.9915 106.287 72.7416 102.9 70.773L98.566 68.2674C97.3388 67.5643 95.8943 67.2064 94.2324 67.2064C93.5932 67.2064 92.9796 67.2575 92.4044 67.3598C91.4967 67.526 90.6658 67.82 89.9116 68.2546C88.7738 68.9066 88.1602 69.6864 88.1091 70.5812C88.0963 70.6323 88.0963 70.6835 88.0963 70.7474V77.8422L87.3037 77.382C87.0353 76.7684 86.4856 76.2315 85.6291 75.733L83.0724 74.2629V60.7635C83.0596 59.8047 82.446 58.9738 81.2188 58.2579L76.8852 55.7523C73.9066 54.0394 70.5318 52.8505 66.7734 52.1985V44.9375C70.2378 45.3594 73.5487 46.0624 76.719 47.0212C79.9021 47.98 82.8295 49.2328 85.5013 50.7796L111.516 65.8002C112.743 66.5161 114.187 66.8612 115.849 66.874C117.498 66.874 118.943 66.5161 120.157 65.813L132.493 58.6926L146.018 50.8946C148.371 49.5396 149.559 47.8777 149.559 45.9346Z" fill="#88AEE8" stroke="#4283E4" stroke-width="0.7"/>
<path d="M97.8888 80.739C97.8888 81.5827 97.6714 82.3624 97.2368 83.1038C96.6615 84.0754 95.69 84.9447 94.3477 85.7245C92.5708 86.7599 90.4743 87.3991 88.1094 87.6548V70.7422C88.1094 71.701 88.723 72.532 89.963 73.2479L94.2966 75.7405C95.4471 76.4053 96.3292 77.1468 96.9172 77.9522C97.5564 78.8087 97.876 79.7419 97.8888 80.739Z" fill="#DEEBFF"/>
<path d="M110.142 80.7409V80.8943C110.142 83.6811 108.876 86.1738 106.358 88.3854C105.412 89.2163 104.3 89.9961 103.009 90.7376C101.232 91.7602 99.3144 92.6039 97.2434 93.2431C94.6356 94.0485 91.7977 94.547 88.7424 94.7388C88.5251 94.7516 88.3205 94.7644 88.1032 94.7771C87.8987 94.7771 87.6941 94.7771 87.4896 94.8027C86.9144 94.8155 86.3391 94.8283 85.7511 94.8283C78.9758 94.8155 73.1977 93.4349 68.4294 90.6736L64.0958 88.1681C62.8686 87.465 62.255 86.634 62.2422 85.6753C62.2422 85.2279 62.37 84.8188 62.6385 84.4353C62.9325 83.9751 63.4055 83.566 64.0702 83.1825C65.2847 82.4794 66.7292 82.1215 68.3911 82.1343C70.0401 82.1343 71.4847 82.4922 72.7119 83.1953L77.0455 85.7009C78.6946 86.6468 80.5737 87.2732 82.683 87.5545C83.6418 87.7079 84.6517 87.7718 85.7127 87.7718C86.3263 87.7718 86.9144 87.759 87.4896 87.6951C87.6941 87.6951 87.8987 87.6823 88.1032 87.6567C90.4682 87.4011 92.5647 86.7619 94.3416 85.7264C95.6838 84.9466 96.6554 84.0774 97.2306 83.1058C97.6653 82.3644 97.8826 81.5846 97.8826 80.7409C97.8698 79.7437 97.5502 78.8105 96.9111 77.9541C96.323 77.1487 95.4409 76.4072 94.2904 75.7425L89.9568 73.2497C88.7168 72.5338 88.1032 71.7029 88.1032 70.7442C88.1032 70.6802 88.1032 70.6291 88.116 70.578C88.1671 69.6831 88.7807 68.9033 89.9185 68.2514C90.6727 67.8167 91.5036 67.5227 92.4113 67.3565C92.9865 67.2543 93.6001 67.2031 94.2393 67.2031C95.9012 67.2031 97.3457 67.5611 98.5729 68.2642L102.907 70.7697C106.294 72.7384 108.506 74.9883 109.503 77.5194C109.912 78.5421 110.129 79.6159 110.142 80.7409Z" fill="#DEEBFF" stroke="#4283E4" stroke-width="0.7"/>
<path d="M83.0832 60.7625C83.0832 61.7084 82.4695 62.5394 81.2551 63.2552C80.0279 63.9583 78.5961 64.3035 76.9343 64.3035C75.2724 64.3035 73.8407 63.9455 72.6135 63.2297L68.2671 60.7241C67.7941 60.4556 67.2955 60.2 66.7842 59.9954C66.0555 59.6759 65.2885 59.4202 64.4832 59.2284C63.0003 58.8449 61.3768 58.666 59.6126 58.6532C56.225 58.6532 53.3487 59.3307 50.9838 60.6985C49.7566 61.4016 48.8361 62.207 48.2481 63.0763C47.7112 63.8816 47.4427 64.7509 47.4427 65.6841C47.4555 67.64 48.6572 69.3018 51.0349 70.6825L55.3685 73.188C56.5957 73.8911 57.2221 74.722 57.2221 75.6808V75.7064C57.2221 76.2688 57.0048 76.793 56.5702 77.266C56.2761 77.5855 55.8926 77.8924 55.3941 78.1736C54.1796 78.8767 52.7351 79.2346 51.086 79.2346C49.9867 79.2218 48.9895 79.0684 48.0819 78.7488C47.6089 78.5954 47.1743 78.4037 46.7524 78.1608L42.4188 75.6552C40.7442 74.6965 39.3636 73.661 38.277 72.5488C37.51 71.7691 36.8964 70.9637 36.4234 70.12C35.6436 68.7266 35.2473 67.2437 35.2345 65.6585C35.2217 63.089 36.2316 60.788 38.277 58.7299C39.3252 57.6433 40.6803 56.6334 42.3166 55.6874C47.0465 52.9517 52.8118 51.5967 59.5743 51.6095C62.0799 51.6095 64.4448 51.8012 66.6691 52.1847C66.7075 52.1975 66.7458 52.1975 66.7842 52.1975C70.5425 52.8495 73.9174 54.0383 76.8959 55.7513L81.2295 58.2569C82.4568 58.9728 83.0704 59.8037 83.0832 60.7625Z" fill="#DEEBFF" stroke="#4283E4" stroke-width="0.7"/>
<path d="M145.973 40.9125L85.2642 5.86017C82.8736 4.47955 79.9845 3.78924 76.6096 3.78924C73.222 3.77646 70.3457 4.45398 67.968 5.82182L7.64263 40.6569C5.27768 42.0247 4.08888 43.6866 4.10166 45.6424C4.11445 47.5983 5.31608 49.2602 7.69382 50.6408L18.5343 56.9047C19.6209 57.5311 20.9376 57.7868 22.446 57.6845C22.6378 57.6589 22.8295 57.6461 23.0213 57.6206C24.7854 57.4033 26.1403 56.8152 27.0735 55.8565C27.7766 55.1022 28.5693 54.3608 29.4514 53.6321C29.6431 53.4659 29.8348 53.2998 30.0265 53.1464C31.1387 52.2515 32.3405 51.4334 33.6316 50.6919C34.4242 50.2317 35.1784 49.8226 35.8943 49.4391C36.6101 49.0684 37.4027 48.7233 38.272 48.3909L37.9395 48.1991C36.7123 47.496 36.0987 46.6523 36.0859 45.7064C36.0859 44.7476 36.6996 43.9167 37.9141 43.2136L46.5301 38.228C47.7574 37.5249 49.1891 37.1798 50.851 37.1798C52.5128 37.1798 53.9444 37.5377 55.1844 38.2536L55.632 38.5092L66.7791 44.9393C70.2434 45.3612 73.5545 46.0643 76.7248 47.0231C79.9079 47.9818 82.8353 49.2346 85.507 50.7814L111.521 65.802C112.749 66.5179 114.193 66.8631 115.855 66.8758C117.504 66.8758 118.949 66.5179 120.163 65.8148L132.499 58.6944L146.024 50.8965C148.376 49.5414 149.565 47.8795 149.565 45.9365V45.9109C149.552 43.955 148.35 42.2804 145.973 40.9125ZM81.1095 38.2919C79.8951 38.995 78.4506 39.353 76.8015 39.353C75.1396 39.353 73.6951 38.995 72.4679 38.2791L64.2609 33.5365L63.8007 33.268C62.5734 32.5649 61.947 31.734 61.947 30.7752C61.947 29.8165 62.5479 28.9855 63.7751 28.2824L72.3912 23.3097C73.6056 22.6066 75.0501 22.2486 76.6992 22.2486C78.3611 22.2614 79.8056 22.6066 81.0328 23.3224L89.6999 28.3336C90.9399 29.0367 91.5535 29.8676 91.5535 30.8264C91.5663 31.7851 90.9528 32.616 89.7384 33.3191L89.1374 33.6643L81.1095 38.2919ZM115.753 48.3398L115.152 48.6849L107.137 53.3125C105.909 54.0156 104.478 54.3736 102.816 54.3736C101.154 54.3736 99.7095 54.0156 98.4823 53.2998L89.8151 48.2886C88.5879 47.5855 87.9741 46.7546 87.9613 45.7958C87.9613 44.8371 88.5622 44.0061 89.7894 43.3031L97.8176 38.6754L98.4055 38.3303C99.6199 37.6272 101.064 37.2692 102.726 37.2692C104.375 37.282 105.82 37.6272 107.047 38.3431L115.727 43.3542C116.954 44.0573 117.568 44.8882 117.568 45.847C117.581 46.8057 116.967 47.6367 115.753 48.3398Z" fill="#88AEE8" stroke="#4283E4" stroke-width="0.7"/>
<path d="M91.5597 30.8199C91.5725 31.7787 90.9589 32.6096 89.7445 33.3127L89.1436 33.6579L81.1156 38.2855C79.9012 38.9886 78.4566 39.3465 76.8076 39.3465C75.1457 39.3465 73.7012 38.9886 72.4739 38.2727L64.2669 33.53L63.8067 33.2616C62.5795 32.5585 61.9531 31.7275 61.9531 30.7688C61.9531 29.81 62.554 28.9791 63.7812 28.276L72.3973 23.3032C73.6117 22.6001 75.0562 22.2422 76.7053 22.2422C78.3671 22.255 79.8117 22.6001 81.0389 23.316L89.7061 28.3271C90.9461 29.0302 91.5597 29.8612 91.5597 30.8199Z" fill="#DEEBFF"/>
<path d="M76.8076 39.3465C78.4566 39.3465 79.9012 38.9886 81.1156 38.2855L89.1436 33.6579L89.7445 33.3127C90.9589 32.6096 91.5725 31.7787 91.5597 30.8199C91.5597 29.8612 90.9461 29.0302 89.7061 28.3271L81.0389 23.316C79.8117 22.6001 78.3671 22.255 76.7053 22.2422M76.8076 39.3465C75.1457 39.3465 73.7012 38.9886 72.4739 38.2727L64.2669 33.53L63.8067 33.2616C62.5795 32.5585 61.9531 31.7275 61.9531 30.7688C61.9531 29.81 62.554 28.9791 63.7812 28.276L72.3973 23.3032C73.6117 22.6001 75.0562 22.2422 76.7053 22.2422M76.8076 39.3465L76.7053 22.2422" stroke="#4283E4" stroke-width="0.7"/>
<path d="M117.568 45.8395C117.58 46.7982 116.967 47.6291 115.752 48.3322L115.151 48.6774L107.136 53.305C105.909 54.0081 104.477 54.366 102.815 54.366C102.785 54.366 102.756 54.3659 102.726 54.3657C101.102 54.3531 99.6869 53.9952 98.4818 53.2922L89.8145 48.2811C88.5873 47.578 87.9737 46.7471 87.9609 45.7883C87.9609 44.8296 88.5618 43.9986 89.789 43.2955L97.817 38.6679L98.4051 38.3227C99.6195 37.6197 101.064 37.2617 102.726 37.2617C104.375 37.2745 105.819 37.6197 107.047 38.3355L115.727 43.3467C116.954 44.0498 117.568 44.8807 117.568 45.8395Z" fill="#DEEBFF"/>
<path d="M102.726 37.2617C101.064 37.2617 99.6195 37.6197 98.4051 38.3227L97.817 38.6679L89.789 43.2955C88.5618 43.9986 87.9609 44.8296 87.9609 45.7883C87.9737 46.7471 88.5873 47.578 89.8145 48.2811L98.4818 53.2922C99.6869 53.9952 101.102 54.3531 102.726 54.3657M102.726 37.2617C104.375 37.2745 105.819 37.6197 107.047 38.3355L115.727 43.3467C116.954 44.0498 117.568 44.8807 117.568 45.8395C117.58 46.7982 116.967 47.6291 115.752 48.3322L115.151 48.6774L107.136 53.305C105.909 54.0081 104.477 54.366 102.815 54.366C102.785 54.366 102.756 54.3659 102.726 54.3657M102.726 37.2617V54.3657" stroke="#4283E4" stroke-width="0.7"/>
<path d="M38.2719 58.727C36.2265 60.7852 35.2166 63.0862 35.2294 65.6557L35.255 75.3584C34.7308 75.6268 34.1939 75.9208 33.6315 76.2532C32.3403 76.9947 31.1387 77.8128 30.0265 78.7076C28.9143 79.6025 27.93 80.4973 27.0735 81.4178C26.1403 82.3765 24.7853 82.9646 23.0212 83.1819C21.257 83.412 19.7614 83.1691 18.5341 82.466L7.69371 76.2021C5.31598 74.8215 4.11435 73.1596 4.10156 71.2037V45.6367C4.11435 47.5926 5.31598 49.2545 7.69371 50.6351L18.5341 56.899C19.6207 57.5254 20.9374 57.7811 22.4459 57.6788C22.6376 57.6532 22.8294 57.6404 23.0212 57.6149C24.7853 57.3975 26.1403 56.8095 27.0735 55.8507C27.7766 55.0965 28.5692 54.3551 29.4513 53.6264C29.643 53.4602 29.8348 53.294 30.0265 53.1406C31.1387 52.2458 32.3403 51.4276 33.6315 50.6862C34.424 50.226 35.1783 49.8169 35.8941 49.4334C36.61 49.0627 37.4026 48.7175 38.2719 48.3852V58.727Z" fill="#88AEE8" stroke="#4283E4" stroke-width="0.7"/>
<path d="M66.7791 44.9393V52.1108L66.6642 52.1875C64.4399 51.804 62.0749 51.6123 59.5694 51.6123C52.8069 51.5995 47.0415 52.9545 42.3116 55.6902C40.6753 56.6362 39.3202 57.6461 38.2719 58.7327V48.3908L37.9395 48.1991C36.7123 47.496 36.0987 46.6523 36.0859 45.7063C36.0859 44.7475 36.6997 43.9166 37.9141 43.2135L46.5302 38.2279C47.7574 37.5248 49.1892 37.1797 50.851 37.1797C52.5129 37.1797 53.9445 37.5376 55.1845 38.2535L55.632 38.5092L66.7791 44.9393Z" fill="#88AEE8" stroke="#4283E4" stroke-width="0.7"/>
<path d="M83.0935 60.7577V74.2571L68.3158 65.7177C67.8428 65.4365 67.3315 65.2192 66.7946 65.053C65.9381 64.7845 65.005 64.6567 63.9823 64.6439C62.3205 64.6439 60.8886 65.0018 59.6614 65.7049C59.4568 65.82 59.2779 65.935 59.1117 66.0756C58.2552 66.6893 57.8333 67.3924 57.8461 68.1977V84.2921C57.6416 84.2921 57.437 84.3177 57.2325 84.3433V75.6761C57.2325 74.7173 56.6061 73.8864 55.3789 73.1833L51.0453 70.6777C48.6676 69.2971 47.4659 67.6352 47.4531 65.6794C47.4531 64.7462 47.7216 63.8769 48.2585 63.0715C48.8465 62.2023 49.7669 61.3969 50.9942 60.6938C53.3591 59.326 56.2354 58.6484 59.623 58.6484C61.3871 58.6612 63.0106 58.8402 64.4935 59.2237C65.2989 59.4154 66.0659 59.6711 66.7946 59.9907C67.3059 60.1952 67.8045 60.4509 68.2775 60.7194L72.6238 63.2249C73.8511 63.9408 75.2956 64.2987 76.9447 64.2987C78.5937 64.2987 80.0383 63.9536 81.2655 63.2505C82.4799 62.5346 83.0935 61.7037 83.0935 60.7577Z" fill="#DEEBFF" stroke="#4283E4" stroke-width="0.7"/>
<path d="M87.4939 78.2373V78.2629C87.4939 79.2088 86.8803 80.0398 85.6787 80.7301C84.8989 81.1775 84.0424 81.4715 83.0836 81.6377C82.534 81.7272 81.9587 81.7783 81.3579 81.7783C79.696 81.7783 78.2515 81.4204 77.0243 80.7045L59.677 70.695C58.4498 69.9919 57.8362 69.1482 57.8362 68.2023C57.8234 67.3969 58.2453 66.6938 59.1018 66.0802C59.268 65.9396 59.4469 65.8245 59.6515 65.7095C60.8787 65.0064 62.3106 64.6484 63.9724 64.6484C64.9951 64.6612 65.9282 64.7891 66.7847 65.0575C67.3216 65.2237 67.8329 65.441 68.3059 65.7223L83.0836 74.2616L85.6403 75.7317C86.4968 76.2303 87.0465 76.7672 87.315 77.3808C87.43 77.6493 87.4939 77.9433 87.4939 78.2373Z" fill="#DEEBFF" stroke="#4283E4" stroke-width="0.7"/>
<path d="M57.222 75.7002V101.242C57.222 102.2 56.6212 103.031 55.394 103.734C54.1795 104.438 52.735 104.795 51.0859 104.795C49.4241 104.783 47.9795 104.425 46.7523 103.722L42.4187 101.216C37.6505 98.4676 35.2472 95.1311 35.2344 91.2194C35.2344 90.8742 35.2472 90.5418 35.2855 90.2095L35.2599 75.355L35.2344 65.6523C35.2472 67.2375 35.6434 68.7204 36.4232 70.1138C36.8962 70.9575 37.5098 71.7629 38.2768 72.5427C39.3634 73.6548 40.7441 74.6903 42.4187 75.649L46.7523 78.1546C47.1742 78.3975 47.6088 78.5892 48.0818 78.7427C48.9894 79.0622 49.9865 79.2156 51.0859 79.2284C52.735 79.2284 54.1795 78.8705 55.394 78.1674C55.8925 77.8862 56.276 77.5794 56.57 77.2598C57.0047 76.7868 57.222 76.2626 57.222 75.7002Z" fill="#DEEBFF" stroke="#4283E4" stroke-width="0.7"/>
<path d="M110.142 80.8945V106.308C110.206 110.194 107.828 113.531 103.009 116.305C98.2789 119.041 92.5135 120.408 85.7511 120.396C78.9758 120.383 73.1977 119.002 68.4294 116.241L64.0958 113.735C62.8686 113.032 62.255 112.201 62.2422 111.243V85.6756C62.2422 86.6343 62.8686 87.4653 64.0958 88.1683L68.4294 90.6739C73.1977 93.4351 78.9758 94.8158 85.7511 94.8285C86.3391 94.8285 86.9144 94.8158 87.4896 94.803C87.6941 94.7902 87.8987 94.7902 88.1032 94.7774C88.3205 94.7646 88.5251 94.7518 88.7424 94.7391C91.7977 94.5473 94.6356 94.0488 97.2434 93.2434C99.3144 92.6042 101.232 91.7605 103.009 90.7378C104.3 89.9964 105.412 89.2166 106.358 88.3857C108.876 86.1741 110.142 83.6813 110.142 80.8945Z" fill="#DEEBFF" stroke="#4283E4" stroke-width="0.7"/>
<path d="M87.5015 78.2598V87.6941C86.9262 87.758 86.3382 87.7708 85.7246 87.7708C84.6635 87.7708 83.6537 87.7068 82.6949 87.5534C80.5856 87.2722 78.7064 86.6458 77.0574 85.6998L72.7238 83.1943C71.4965 82.4912 70.052 82.1332 68.4029 82.1332C66.7411 82.1205 65.2965 82.4784 64.0821 83.1815C63.4174 83.565 62.9444 83.9741 62.6504 84.4343C62.3819 84.8178 62.2541 85.2269 62.2541 85.6743V97.7419L59.6846 96.259C58.4574 95.5559 57.8438 94.7122 57.8438 93.7662V68.1992C57.8438 69.1452 58.4574 69.9889 59.6846 70.692L77.0318 80.7015C78.259 81.4174 79.7035 81.7753 81.3654 81.7753C81.9662 81.7753 82.5415 81.7242 83.0912 81.6347C84.0499 81.4685 84.9064 81.1745 85.6862 80.7271C86.8879 80.0367 87.5015 79.2058 87.5015 78.2598Z" fill="#DEEBFF" stroke="#4283E4" stroke-width="0.7"/>
</svg>
