<svg width="45" height="35" viewBox="0 0 45 35" fill="none" xmlns="http://www.w3.org/2000/svg">
<path d="M29.6048 18.1038C26.5427 20.4777 25.2908 22.0048 25.3008 26.0403C24.9755 21.231 28.3676 19.0722 28.8906 18.608C29.4181 18.1399 30.312 17.7723 30.7477 17.2361C31.482 16.332 31.5667 14.5506 32.6177 12.9741C33.6234 11.4643 35.2284 11.1083 36.0974 11.284C36.3134 11.3274 36.4784 11.5163 36.5351 11.6383C36.7235 12.0394 36.6133 12.4567 36.2599 12.8602C35.7581 13.434 35.3977 14.0874 35.0938 14.9948C34.4687 16.8607 33.1935 22.902 32.8595 25.4134C32.6202 27.2146 31.6201 29.1454 30.6543 29.9449C29.6091 30.8102 23.6767 33.3397 21.7597 33.041C17.8428 32.4311 15.4241 27.1355 14.3345 24.3985C14.3285 24.3834 14.3222 24.3717 14.3139 24.3578C13.8831 23.6117 8.20244 17.6215 8.01702 16.0554C7.91271 15.1703 8.22789 14.5978 8.55661 14.457C9.0647 14.2394 9.56097 14.5411 9.67609 14.6305C10.056 14.9244 10.5596 15.2884 12.1695 17.4818C13.4709 19.255 14.841 20.2797 15.0041 20.3468C15.0914 20.383 15.1777 20.2774 15.1501 20.2126C14.5789 18.8521 13.2482 16.4291 12.4998 14.9734C11.6673 13.354 10.7288 11.4484 10.3813 10.2608C10.3022 9.99124 10.3872 9.41677 10.9301 9.1353C11.617 8.77958 12.1644 9.07864 12.5611 9.48594C12.9661 9.90138 14.1638 11.7806 15.2047 13.612C16.4385 15.7833 17.8032 18.0164 18.0111 18.2658C18.163 18.4488 18.6528 18.3089 18.5211 17.8604C18.4335 17.5611 17.5413 15.2026 16.599 12.9902C15.7842 11.0775 14.2423 7.67909 14.1049 6.2028C14.0655 5.78411 14.2263 5.12018 14.9434 4.81652C15.7553 4.47263 16.4024 4.78649 16.8043 5.61154C17.203 6.43033 18.5154 8.93772 19.3559 10.5901C20.2187 12.3818 21.8499 15.7066 22.0821 15.9017C22.3179 16.0997 23.0147 15.7295 22.9929 15.3262C22.9685 14.8867 22.1309 11.2666 21.8946 10.339C21.5568 9.01504 21.0181 6.56504 21.0041 5.86113C20.9921 5.2599 21.3031 4.70777 21.9789 4.5119C22.7142 4.29906 23.3578 4.76608 23.6482 5.4839C23.8203 5.90854 24.9303 9.28315 25.4299 10.9658C25.6734 11.7854 26.4564 13.858 26.9093 14.9675C27.4636 16.3258 27.6428 17.656 29.6048 18.1038Z" fill="#FFCF45"/>
<path d="M29.6048 18.1038C26.5427 20.4777 25.2908 22.0048 25.3008 26.0403C24.9755 21.231 28.3676 19.0722 28.8906 18.608C29.4181 18.1399 30.312 17.7723 30.7477 17.2361C31.482 16.332 31.5667 14.5506 32.6177 12.9741C33.6234 11.4643 35.2284 11.1083 36.0974 11.284C36.3134 11.3274 36.4784 11.5163 36.5351 11.6383C36.7235 12.0394 36.6133 12.4567 36.2599 12.8602C35.7581 13.434 35.3977 14.0874 35.0938 14.9948C34.4687 16.8607 33.1935 22.902 32.8595 25.4134C32.6202 27.2146 31.6201 29.1454 30.6543 29.9449C29.6091 30.8102 23.6767 33.3397 21.7597 33.041C17.8428 32.4311 15.4241 27.1355 14.3345 24.3985C14.3285 24.3834 14.3222 24.3717 14.3139 24.3578C13.8831 23.6117 8.20244 17.6215 8.01702 16.0554C7.91271 15.1703 8.22789 14.5978 8.55661 14.457C9.0647 14.2394 9.56097 14.5411 9.67609 14.6305C10.056 14.9244 10.5596 15.2884 12.1695 17.4818C13.4709 19.255 14.841 20.2797 15.0041 20.3468C15.0914 20.383 15.1777 20.2774 15.1501 20.2126C14.5789 18.8521 13.2482 16.4291 12.4998 14.9734C11.6673 13.354 10.7288 11.4484 10.3813 10.2608C10.3022 9.99124 10.3872 9.41677 10.9301 9.1353C11.617 8.77958 12.1644 9.07864 12.5611 9.48594C12.9661 9.90138 14.1638 11.7806 15.2047 13.612C16.4385 15.7833 17.8032 18.0164 18.0111 18.2658C18.163 18.4488 18.6528 18.3089 18.5211 17.8604C18.4335 17.5611 17.5413 15.2026 16.599 12.9902C15.7842 11.0775 14.2423 7.67909 14.1049 6.2028C14.0655 5.78411 14.2263 5.12018 14.9434 4.81652C15.7553 4.47263 16.4024 4.78649 16.8043 5.61154C17.203 6.43033 18.5154 8.93772 19.3559 10.5901C20.2187 12.3818 21.8499 15.7066 22.0821 15.9017C22.3179 16.0997 23.0147 15.7295 22.9929 15.3262C22.9685 14.8867 22.1309 11.2666 21.8946 10.339C21.5568 9.01504 21.0181 6.56504 21.0041 5.86113C20.9921 5.2599 21.3031 4.70777 21.9789 4.5119C22.7142 4.29906 23.3578 4.76608 23.6482 5.4839C23.8203 5.90854 24.9303 9.28315 25.4299 10.9658C25.6734 11.7854 26.4564 13.858 26.9093 14.9675C27.4636 16.3258 27.6428 17.656 29.6048 18.1038Z" stroke="#E8B627" stroke-width="0.824374" stroke-linecap="round" stroke-linejoin="round"/>
<path d="M3.78906 24.125C4.32242 25.6951 5.59795 28.741 8.41967 30.9589C9.20973 31.58 9.98449 32.0289 10.6854 32.3581" stroke="#E8B627" stroke-width="0.66503" stroke-linecap="round" stroke-linejoin="round"/>
<path d="M1 27.75C1.40234 28.9351 2.36531 31.2334 4.49473 32.9073C5.0906 33.3762 5.67516 33.716 6.20453 33.964" stroke="#E8B627" stroke-width="0.66503" stroke-linecap="round" stroke-linejoin="round"/>
<path d="M35.8516 2.53906C37.1803 3.53129 39.6821 5.68532 40.9198 9.05437C41.2662 9.99738 41.4544 10.8739 41.5509 11.642" stroke="#E8B627" stroke-width="0.66503" stroke-linecap="round" stroke-linejoin="round"/>
<path d="M40.1719 1C41.1747 1.74882 43.0628 3.37482 43.9971 5.91723C44.2585 6.62882 44.4008 7.28986 44.4733 7.86976" stroke="#E8B627" stroke-width="0.66503" stroke-linecap="round" stroke-linejoin="round"/>
</svg>
